<svg width="73" height="94" viewBox="0 0 73 94" fill="none" xmlns="http://www.w3.org/2000/svg">
<path fill-rule="evenodd" clip-rule="evenodd" d="M47.338 48.3234C47.4889 48.292 47.5486 48.1006 47.4702 47.9679C47.3925 47.8363 47.198 47.7932 47.0969 47.9078C47.0537 47.9567 47.0095 48.0068 46.9641 48.0582C46.8453 48.1926 46.9653 48.4004 47.141 48.3642C47.2069 48.3506 47.2725 48.337 47.338 48.3234ZM50.1918 61.268C51.1939 60.7876 52.3799 60.897 53.2749 61.5557L60.1023 66.5807C60.9731 67.2216 60.8078 68.5684 59.8078 68.9797L51.8448 72.2546C51.1145 72.5549 50.7821 73.4037 51.1143 74.1201L54.8196 82.1124C55.319 83.1897 54.3216 84.3553 53.1801 84.0286L43.7257 81.3225C42.9534 81.1015 42.1554 81.581 41.9881 82.3668L39.8497 92.4093C39.6227 93.4753 38.311 93.8747 37.5284 93.1161L31.4539 87.2274C30.8365 86.6288 29.8287 86.7309 29.3438 87.441L25.6239 92.8887C25.0237 93.7676 23.6982 93.6707 23.2323 92.7139L18.7028 83.4132C18.4326 82.8584 17.8281 82.5489 17.2199 82.6541L7.78664 84.2856C6.56401 84.4971 5.70045 83.1192 6.42378 82.1111L12.097 74.2041C12.6127 73.4853 12.3325 72.4739 11.5203 72.123L0.836779 67.5076C-0.180271 67.0682 -0.296702 65.6724 0.633498 65.0706L7.05272 60.9176C7.71056 60.492 7.88535 59.6063 7.43849 58.9627L2.37843 51.6749C1.77532 50.8063 2.32755 49.6093 3.37983 49.5044L12.1559 48.6296C12.3932 48.606 12.6491 48.696 12.7503 48.9121C12.8437 49.1117 12.9386 49.3108 13.0347 49.5093C13.7265 50.9511 14.4978 52.3531 15.2683 53.7538L15.2684 53.7539L15.2684 53.754C15.537 54.2421 15.8056 54.7305 16.0706 55.2199C18.4465 59.5918 20.6011 63.1255 24.1348 67.736C26.053 70.2387 27.7276 70.3988 29.0257 69.9976C29.7721 69.7669 30.5083 69.5566 31.243 69.3468L31.2452 69.3461C33.2186 68.7824 35.1822 68.2215 37.3028 67.2782C39.8047 66.1634 44.6948 63.9031 50.1918 61.268Z" fill="#151515"/>
<path d="M49.5093 41.2579C48.8558 41.397 48.1786 41.5411 47.4703 41.6825L47.8014 41.3081C48.227 40.8266 48.5391 40.4733 48.8558 40.1369C49.6322 39.2972 50.4183 38.4678 51.2034 37.6394C53.1997 35.533 55.1901 33.4328 57.002 31.1852C58.3611 29.4529 59.3891 27.4795 60.0333 25.3658C60.844 22.7522 58.4203 20.2203 56.2124 21.2104C54.6302 21.9224 53.1728 22.9354 51.7256 23.9414C51.4553 24.1292 51.1855 24.3168 50.9152 24.5021C50.0425 25.174 48.4988 26.1561 47.7943 26.6466C47.7943 26.6466 48.4438 25.6339 48.7127 24.9611C49.1641 23.8317 49.7154 22.8563 50.1221 21.7085C52.7363 14.3301 52.9327 10.8902 52.7029 8.83909C52.4731 6.78802 50.9429 5.04066 48.6459 5.51828C46.9662 5.86218 45.958 6.99096 44.9884 8.12662C41.6531 12.0259 41.3079 13.257 39.3263 17.9591C38.7962 19.2158 38.2676 20.4728 37.7077 21.804L37.7049 21.8107L37.6986 21.8257L37.6968 21.8299C37.328 22.7069 36.9455 23.6163 36.5401 24.5791L36.2633 23.3685C36.1121 22.6787 35.9745 21.9831 35.8369 21.2869L35.8368 21.2867C35.4938 19.5518 35.1497 17.8121 34.5913 16.1465C33.5988 13.1741 30.2673 12.6297 27.995 14.7653C27.1653 15.5406 26.4955 16.4743 26.0242 17.5126C25.5528 18.551 25.2892 19.6736 25.2484 20.8159C25.0767 23.7298 25.1003 26.6533 25.1238 29.5751C25.1283 30.1455 25.1329 30.7158 25.1361 31.2859C25.1318 32.2362 25.227 33.1872 25.3221 34.1381C25.3651 34.5684 25.1992 35.127 25.233 35.5571L24.9265 35.1373L24.9264 35.1372C24.7747 34.8501 24.6225 34.5619 24.4832 34.268C24.1724 33.626 23.882 32.9698 23.5916 32.3136C22.9559 30.8776 22.3202 29.4412 21.4705 28.1513C19.8819 25.7369 17.2657 24.4957 15.3144 26.9491C14.4246 28.1739 13.9735 29.6688 14.0351 31.1884C14.2635 35.1851 15.5298 38.9752 17.2799 42.5797C17.9034 43.8759 18.5984 45.1364 19.2927 46.3957L19.2928 46.3958C19.5348 46.8348 19.7769 47.2739 20.0157 47.714C22.1567 51.6447 24.0979 54.822 27.2807 58.9682C29.0085 61.219 30.5151 61.3643 31.6825 61.0051C32.3537 60.7986 33.0157 60.6103 33.6764 60.4225L33.6785 60.4218C35.4533 59.9172 37.2193 59.4151 39.1262 58.5694C42.2551 57.1797 49.5372 53.8034 56.6644 50.2989C57.0797 50.0947 57.4803 49.8988 57.8686 49.7089C60.6748 48.3364 62.8397 47.2775 65.2552 45.6873C65.5785 45.4809 65.8439 45.1941 66.0262 44.8543C66.2084 44.5144 66.3015 44.1329 66.2964 43.7461C66.2913 43.3593 66.1883 42.9802 65.9972 42.6448C65.806 42.3095 65.5331 42.0291 65.2046 41.8305C64.5225 41.3969 63.775 41.0791 62.9916 40.8898C59.8648 40.1578 56.6306 40.027 53.4577 40.5043C52.1637 40.6931 50.884 40.9654 49.5094 41.2579L49.5093 41.2579Z" fill="#151515"/>
</svg>
