<svg width="286" height="97" viewBox="0 0 286 97" fill="none" xmlns="http://www.w3.org/2000/svg">
<path d="M88.0398 42.4899C87.292 42.4899 86.9181 42.2585 86.9181 41.7955V41.6887C86.9181 41.475 87.2386 41.1189 87.8796 40.6204C88.5562 40.0862 88.8945 39.463 88.8945 38.7508V8.30374C88.8945 7.66275 88.5562 7.07518 87.8796 6.54102C87.2386 6.00686 86.9181 5.61514 86.9181 5.36587V5.20562C86.9181 4.77829 87.292 4.56463 88.0398 4.56463H97.9752C100.29 4.56463 102.427 4.7961 104.385 5.25904C106.344 5.72198 108.106 6.43419 109.673 7.39568C111.276 8.35716 112.522 9.65695 113.412 11.295C114.338 12.8975 114.801 14.7671 114.801 16.9037C114.801 20.9633 113.43 24.097 110.688 26.3049C107.946 28.5128 104.118 29.6167 99.2038 29.6167H93.7019V38.7508C93.7019 39.463 94.0402 40.0862 94.7168 40.6204C95.429 41.1189 95.7851 41.475 95.7851 41.6887V41.7955C95.7851 42.2585 95.429 42.4899 94.7168 42.4899H88.0398ZM95.6249 27.4266H99.2038C102.48 27.4266 105.062 26.6076 106.949 24.9695C108.872 23.2958 109.834 20.9989 109.834 18.0789C109.834 14.411 108.676 11.6155 106.361 9.69256C104.082 7.73397 101.287 6.75468 97.9752 6.75468H95.0907C94.1649 6.75468 93.7019 7.32445 93.7019 8.46399V25.5037C93.7019 26.7856 94.3429 27.4266 95.6249 27.4266Z" fill="#151515"/>
<path d="M138.724 34.9583C138.974 34.5666 139.312 34.4241 139.739 34.531C140.167 34.6022 140.345 34.8871 140.273 35.3856C139.882 37.273 138.742 39.0179 136.855 40.6204C134.968 42.2228 132.493 43.0241 129.43 43.0241C125.905 43.0241 122.949 41.7777 120.563 39.285C118.213 36.7922 117.038 33.5161 117.038 29.4564C117.038 25.7173 118.248 22.6014 120.67 20.1087C123.091 17.5803 126.083 16.3161 129.644 16.3161C132.671 16.3161 135.074 17.1352 136.855 18.7733C138.671 20.3757 139.579 22.1919 139.579 24.2217C139.579 25.7529 138.742 26.8035 137.069 27.3732L122.272 32.2341C122.878 34.5488 123.946 36.3649 125.477 37.6825C127.044 38.9645 128.914 39.6055 131.086 39.6055C134.754 39.6055 137.3 38.0564 138.724 34.9583ZM128.842 18.0254C126.706 18.0254 124.979 18.9513 123.661 20.8031C122.344 22.6548 121.685 24.9695 121.685 27.7471C121.685 28.8155 121.756 29.7235 121.898 30.4713L133.81 26.1981C134.665 25.842 135.092 25.2188 135.092 24.3285C135.092 22.9753 134.469 21.5865 133.223 20.1621C132.012 18.7377 130.552 18.0254 128.842 18.0254Z" fill="#151515"/>
<path d="M156.946 16.3161C158.477 16.3161 159.67 16.7078 160.524 17.4913C161.415 18.2747 161.86 19.254 161.86 20.4292C161.86 22.1029 161.148 22.9397 159.723 22.9397C159.118 22.9397 158.637 22.7438 158.281 22.3521C157.925 21.9604 157.676 21.5331 157.533 21.0701C157.426 20.6072 157.159 20.1799 156.732 19.7882C156.305 19.3964 155.717 19.2006 154.969 19.2006C153.545 19.2006 152.423 19.9128 151.604 21.3372C150.82 22.726 150.429 24.471 150.429 26.572V38.7508C150.429 39.463 150.803 40.0684 151.551 40.567C152.298 41.0299 152.672 41.386 152.672 41.6353V41.8489C152.672 42.2763 152.316 42.4899 151.604 42.4899H144.98C144.268 42.4899 143.912 42.2763 143.912 41.8489V41.6353C143.912 41.386 144.233 41.0299 144.874 40.567C145.55 40.0684 145.888 39.463 145.888 38.7508V22.5124C145.888 21.7646 145.532 21.1236 144.82 20.5894C144.108 20.0552 143.752 19.6635 143.752 19.4143V19.3074C143.752 18.9513 144.019 18.6308 144.553 18.3459L148.613 16.5298C149.539 16.1025 150.001 16.3517 150.001 17.2776V21.5509C151.212 18.0611 153.527 16.3161 156.946 16.3161Z" fill="#151515"/>
<path d="M174.303 42.9707C171.027 42.9707 168.392 42.3119 166.398 40.9943C164.439 39.6767 163.46 38.3057 163.46 36.8813C163.46 35.5637 164.154 34.9049 165.543 34.9049C166.148 34.9049 166.629 35.1363 166.985 35.5993C167.377 36.0266 167.715 36.5608 168 37.2018C168.285 37.8427 168.623 38.4837 169.015 39.1247C169.442 39.7657 170.101 40.3177 170.991 40.7806C171.882 41.2079 172.986 41.4216 174.303 41.4216C176.084 41.4216 177.544 41.0121 178.683 40.193C179.823 39.3384 180.393 38.181 180.393 36.721C180.393 35.2966 179.823 34.1927 178.683 33.4092C177.579 32.6258 176.226 32.0738 174.624 31.7533C173.021 31.3972 171.419 31.0055 169.816 30.5782C168.214 30.1509 166.843 29.3674 165.703 28.2279C164.599 27.0883 164.047 25.5571 164.047 23.6341C164.047 21.5687 164.991 19.8416 166.878 18.4528C168.766 17.0283 171.169 16.3161 174.09 16.3161C177.188 16.3161 179.698 16.9749 181.621 18.2925C183.544 19.6101 184.506 21.0523 184.506 22.6192C184.506 23.1534 184.31 23.5985 183.918 23.9546C183.562 24.3107 183.117 24.4888 182.583 24.4888C181.942 24.4888 181.39 24.1505 180.927 23.4739C180.464 22.7973 180.072 22.0494 179.752 21.2304C179.467 20.4114 178.861 19.6635 177.935 18.9869C177.01 18.3103 175.799 17.972 174.303 17.972C172.736 17.972 171.419 18.4172 170.35 19.3074C169.318 20.1977 168.801 21.3016 168.801 22.6192C168.801 24.008 169.353 25.0941 170.457 25.8776C171.597 26.6254 172.968 27.1774 174.57 27.5335C176.173 27.8896 177.757 28.2813 179.324 28.7086C180.927 29.1359 182.28 29.9372 183.384 31.1123C184.523 32.2519 185.093 33.8009 185.093 35.7595C185.093 37.8249 184.096 39.5521 182.102 40.9409C180.143 42.2941 177.544 42.9707 174.303 42.9707Z" fill="#151515"/>
<path d="M193.148 11.7758C192.044 11.7758 191.172 11.4731 190.531 10.8677C189.89 10.2623 189.569 9.46109 189.569 8.46399C189.569 7.4669 189.89 6.66566 190.531 6.06028C191.207 5.41928 192.08 5.09879 193.148 5.09879C194.181 5.09879 195.018 5.41928 195.659 6.06028C196.3 6.66566 196.62 7.4669 196.62 8.46399C196.62 9.46109 196.3 10.2623 195.659 10.8677C195.018 11.4731 194.181 11.7758 193.148 11.7758ZM190.05 42.4899C189.373 42.4899 189.035 42.2585 189.035 41.7955V41.5819C189.035 41.3326 189.195 41.1011 189.516 40.8875C189.836 40.6382 190.157 40.3533 190.477 40.0328C190.798 39.6767 190.958 39.2316 190.958 38.6974V22.7795C190.958 21.9604 190.638 21.2482 189.997 20.6428C189.356 20.0374 189.035 19.6457 189.035 19.4677V19.3608C189.035 19.1116 189.302 18.8445 189.836 18.5596L193.949 16.5298C194.519 16.3161 194.929 16.2805 195.178 16.423C195.463 16.5654 195.605 16.8503 195.605 17.2776V38.6974C195.605 39.1247 195.712 39.4986 195.926 39.8191C196.139 40.104 196.389 40.3177 196.674 40.4601C196.958 40.6026 197.208 40.7806 197.421 40.9943C197.635 41.1723 197.742 41.3682 197.742 41.5819V41.7955C197.742 42.2585 197.368 42.4899 196.62 42.4899H190.05Z" fill="#151515"/>
<path d="M202.772 42.4899C202.095 42.4899 201.757 42.2585 201.757 41.7955V41.6353C201.757 41.3504 202.06 40.9765 202.665 40.5135C203.306 40.015 203.626 39.4274 203.626 38.7508V8.73107C203.626 8.12569 203.466 7.62714 203.146 7.23543C202.861 6.8081 202.558 6.4698 202.238 6.22052C201.917 5.97125 201.757 5.73978 201.757 5.52612V5.41929C201.757 5.1344 202.006 4.84952 202.505 4.56463L206.671 2.53483C207.205 2.32116 207.615 2.30336 207.9 2.48141C208.185 2.62385 208.327 2.89093 208.327 3.28265V38.7508C208.327 39.4274 208.665 40.015 209.342 40.5135C210.054 40.9765 210.41 41.3504 210.41 41.6353V41.7955C210.41 42.2585 210.054 42.4899 209.342 42.4899H202.772Z" fill="#151515"/>
<path d="M114.641 92.1667C115.033 92.7365 115.513 93.2172 116.083 93.609C116.689 93.9651 117.152 94.2499 117.472 94.4636C117.828 94.6417 118.006 94.8731 118.006 95.158V95.2648C118.006 95.6922 117.65 95.9058 116.938 95.9058H109.513C108.801 95.9058 108.445 95.6922 108.445 95.2648V95.158C108.445 94.9087 108.623 94.6417 108.979 94.3568C109.371 94.0719 109.638 93.8226 109.78 93.609C109.923 93.3597 109.834 92.8789 109.513 92.1667L101.501 81.1096C101.216 81.1452 100.771 81.1631 100.165 81.1631L93.7553 81.2699V92.1667C93.7553 92.7009 93.9156 93.146 94.2361 93.5021C94.5922 93.8582 94.9483 94.1609 95.3044 94.4102C95.6605 94.6595 95.8385 94.9087 95.8385 95.158V95.2648C95.8385 95.6922 95.4824 95.9058 94.7702 95.9058H88.0398C87.3276 95.9058 86.9715 95.6922 86.9715 95.2648V95.158C86.9715 94.9087 87.292 94.5348 87.933 94.0363C88.574 93.5021 88.8945 92.8789 88.8945 92.1667V61.7196C88.8945 61.0074 88.574 60.4021 87.933 59.9035C87.292 59.3694 86.9715 58.9776 86.9715 58.7284V58.6215C86.9715 58.1942 87.3276 57.9805 88.0398 57.9805H98.9901C103.798 57.9805 107.679 58.9776 110.635 60.9718C113.59 62.9304 115.086 65.8505 115.122 69.732C115.122 72.2248 114.338 74.4148 112.771 76.3022C111.205 78.1896 108.979 79.5428 106.094 80.3618L114.641 92.1667ZM99.6845 79.0264C102.818 79.0264 105.347 78.2608 107.27 76.7295C109.193 75.1983 110.154 73.0972 110.154 70.4264C110.154 67.0791 109.05 64.5329 106.842 62.788C104.67 61.0431 101.964 60.1706 98.723 60.1706H95.1441C94.2183 60.1706 93.7553 60.776 93.7553 61.9867V76.5159C93.7553 78.1896 94.5032 79.0264 95.9988 79.0264H99.6845Z" fill="#151515"/>
<path d="M133.064 96.44C128.934 96.44 125.568 95.1046 122.969 92.4338C120.405 89.7274 119.123 86.4868 119.123 82.7121C119.123 79.0086 120.369 75.9283 122.862 73.4712C125.355 70.9784 128.435 69.732 132.103 69.732C136.056 69.732 139.296 71.0496 141.825 73.6848C144.389 76.2844 145.671 79.4893 145.671 83.2997C145.671 87.0388 144.495 90.1725 142.145 92.7009C139.795 95.1936 136.768 96.44 133.064 96.44ZM133.705 94.6773C135.806 94.6773 137.534 93.787 138.887 92.0065C140.276 90.2259 140.97 87.8578 140.97 84.9022C140.97 81.1274 140.08 77.9581 138.299 75.3941C136.519 72.7946 134.275 71.4948 131.569 71.4948C129.29 71.4948 127.438 72.385 126.014 74.1656C124.589 75.9105 123.877 78.2608 123.877 81.2165C123.877 84.7775 124.803 87.9113 126.655 90.6177C128.506 93.3241 130.857 94.6773 133.705 94.6773Z" fill="#151515"/>
<path d="M192.432 92.1133C192.468 92.8255 192.806 93.4487 193.447 93.9829C194.088 94.4814 194.409 94.8553 194.409 95.1046V95.3183C194.409 95.7456 194.053 95.9593 193.341 95.9593H186.931C186.218 95.9593 185.862 95.7456 185.862 95.3183V95.1046C185.862 94.8553 186.183 94.4814 186.824 93.9829C187.465 93.4843 187.767 92.8789 187.732 92.1667L187.198 81.7506C187.02 78.2608 186.361 75.7324 185.221 74.1656C184.117 72.5987 182.551 71.8153 180.521 71.8153C178.811 71.8153 177.334 72.4919 176.087 73.8451C174.876 75.1983 174.235 76.872 174.164 78.8662C174.307 79.5784 174.378 80.4508 174.378 81.4835V92.1667C174.378 92.8789 174.681 93.4843 175.286 93.9829C175.927 94.4814 176.247 94.8553 176.247 95.1046V95.3183C176.247 95.7456 175.909 95.9593 175.233 95.9593H168.929C168.182 95.9593 167.808 95.7456 167.808 95.3183V95.1046C167.808 94.8553 168.11 94.4814 168.716 93.9829C169.357 93.4843 169.677 92.8789 169.677 92.1667V81.2165C169.677 78.332 169.036 76.0529 167.754 74.3792C166.508 72.6699 164.941 71.8153 163.054 71.8153C161.202 71.8153 159.653 72.5097 158.407 73.8985C157.16 75.2873 156.501 76.9966 156.43 79.0264L156.484 92.1667C156.484 92.8789 156.822 93.4843 157.498 93.9829C158.211 94.4814 158.567 94.8553 158.567 95.1046V95.3183C158.567 95.7456 158.211 95.9593 157.498 95.9593H150.821C150.109 95.9593 149.753 95.7456 149.753 95.3183V95.1046C149.753 94.8553 150.091 94.4814 150.768 93.9829C151.445 93.4843 151.783 92.8789 151.783 92.1667V75.9817C151.783 75.3763 151.605 74.8778 151.249 74.4861C150.893 74.0943 150.537 73.7916 150.18 73.578C149.824 73.3287 149.646 73.0794 149.646 72.8302V72.6699C149.646 72.3494 149.913 72.0823 150.448 71.8687L154.614 69.9457C155.113 69.6964 155.486 69.6608 155.736 69.8389C156.021 70.0169 156.163 70.3196 156.163 70.7469V74.5395C156.946 73.0794 158.033 71.9221 159.421 71.0674C160.846 70.1772 162.395 69.732 164.069 69.732C166.063 69.732 167.861 70.2484 169.464 71.2811C171.102 72.2782 172.348 73.7204 173.203 75.6078C173.879 73.7917 174.983 72.3672 176.515 71.3345C178.046 70.2662 179.791 69.732 181.749 69.732C184.634 69.732 186.966 70.7113 188.747 72.6699C190.563 74.5929 191.596 77.6554 191.845 81.8575L192.432 92.1133Z" fill="#151515"/>
<path d="M219.589 91.6326C219.66 92.3804 219.856 92.968 220.176 93.3953C220.497 93.787 220.835 94.0363 221.191 94.1431C221.547 94.2143 221.868 94.3212 222.153 94.4636C222.437 94.606 222.58 94.8197 222.58 95.1046C222.58 95.8524 221.44 96.2263 219.161 96.2263C217.879 96.2263 216.936 95.9949 216.33 95.5319C215.725 95.0334 215.369 94.0897 215.262 92.7009C213.909 95.1936 211.345 96.44 207.57 96.44C204.579 96.44 202.175 95.7278 200.359 94.3034C198.543 92.8789 197.635 90.9025 197.635 88.3742C197.599 85.8814 198.489 83.9407 200.305 82.5519C202.157 81.163 204.525 80.4686 207.41 80.4686C210.259 80.4686 212.449 81.1809 213.98 82.6053L213.873 81.1631C213.553 77.8869 212.894 75.4475 211.897 73.8451C210.9 72.2426 209.368 71.4413 207.303 71.4413C206.057 71.4413 205.024 71.7618 204.205 72.4028C203.386 73.0438 202.816 73.7382 202.496 74.4861C202.211 75.2339 201.855 75.9283 201.427 76.5693C201 77.2103 200.501 77.5308 199.932 77.5308C199.291 77.5308 198.774 77.3527 198.383 76.9966C198.026 76.6405 197.848 76.1598 197.848 75.5544C197.848 74.0587 198.721 72.7233 200.466 71.5482C202.246 70.3374 204.525 69.732 207.303 69.732C210.544 69.732 213.125 70.7291 215.048 72.7233C217.007 74.6819 218.164 77.4417 218.52 81.0028L219.589 91.6326ZM208.745 94.7307C210.49 94.7307 211.915 94.1787 213.018 93.0748C214.122 91.9353 214.639 90.5286 214.568 88.8549L214.354 86.4512C214.069 85.1692 213.392 84.1365 212.324 83.3531C211.291 82.5697 210.009 82.178 208.478 82.178C206.662 82.178 205.184 82.6943 204.045 83.727C202.905 84.7597 202.335 86.0951 202.335 87.7332C202.335 89.7274 202.923 91.4011 204.098 92.7543C205.309 94.0719 206.858 94.7307 208.745 94.7307Z" fill="#151515"/>
<path d="M237.956 69.732C239.487 69.732 240.68 70.1238 241.535 70.9072C242.425 71.6906 242.87 72.6699 242.87 73.8451C242.87 75.5188 242.158 76.3556 240.734 76.3556C240.128 76.3556 239.648 76.1598 239.292 75.768C238.935 75.3763 238.686 74.949 238.544 74.4861C238.437 74.0231 238.17 73.5958 237.743 73.2041C237.315 72.8124 236.728 72.6165 235.98 72.6165C234.555 72.6165 233.434 73.3287 232.615 74.7531C231.831 76.1419 231.439 77.8869 231.439 79.9879V92.1667C231.439 92.8789 231.813 93.4843 232.561 93.9829C233.309 94.4458 233.683 94.8019 233.683 95.0512V95.2648C233.683 95.6922 233.327 95.9058 232.615 95.9058H225.991C225.279 95.9058 224.923 95.6922 224.923 95.2648V95.0512C224.923 94.8019 225.243 94.4458 225.884 93.9829C226.561 93.4843 226.899 92.8789 226.899 92.1667V75.9283C226.899 75.1805 226.543 74.5395 225.831 74.0053C225.119 73.4712 224.762 73.0794 224.762 72.8302V72.7233C224.762 72.3672 225.03 72.0467 225.564 71.7618L229.623 69.9457C230.549 69.5184 231.012 69.7676 231.012 70.6935V74.9668C232.223 71.477 234.538 69.732 237.956 69.732Z" fill="#151515"/>
<path d="M249.433 65.1917C248.329 65.1917 247.457 64.889 246.816 64.2836C246.175 63.6782 245.854 62.877 245.854 61.8799C245.854 60.8828 246.175 60.0816 246.816 59.4762C247.492 58.8352 248.365 58.5147 249.433 58.5147C250.466 58.5147 251.303 58.8352 251.944 59.4762C252.585 60.0816 252.905 60.8828 252.905 61.8799C252.905 62.877 252.585 63.6782 251.944 64.2836C251.303 64.889 250.466 65.1917 249.433 65.1917ZM246.335 95.9058C245.658 95.9058 245.32 95.6744 245.32 95.2114V94.9978C245.32 94.7485 245.48 94.517 245.801 94.3034C246.121 94.0541 246.442 93.7692 246.762 93.4487C247.083 93.0926 247.243 92.6475 247.243 92.1133V76.1954C247.243 75.3763 246.923 74.6641 246.282 74.0587C245.641 73.4533 245.32 73.0616 245.32 72.8836V72.7767C245.32 72.5275 245.587 72.2604 246.121 71.9755L250.234 69.9457C250.804 69.732 251.214 69.6964 251.463 69.8389C251.748 69.9813 251.89 70.2662 251.89 70.6935V92.1133C251.89 92.5406 251.997 92.9146 252.211 93.235C252.424 93.5199 252.674 93.7336 252.959 93.876C253.243 94.0185 253.493 94.1965 253.706 94.4102C253.92 94.5882 254.027 94.7841 254.027 94.9978V95.2114C254.027 95.6744 253.653 95.9058 252.905 95.9058H246.335Z" fill="#151515"/>
<path d="M283.468 92.0599C283.503 92.6297 283.681 93.0926 284.002 93.4487C284.322 93.8048 284.625 94.1075 284.91 94.3568C285.231 94.5704 285.391 94.8019 285.391 95.0512V95.2648C285.391 95.7278 285.017 95.9593 284.269 95.9593H277.913C277.165 95.9593 276.791 95.7278 276.791 95.2648V95.0512C276.791 94.8019 277.111 94.428 277.752 93.9295C278.429 93.4309 278.749 92.8255 278.714 92.1133L278.18 81.4301C278.037 78.2608 277.378 75.8749 276.203 74.2724C275.064 72.6343 273.532 71.8153 271.609 71.8153C269.651 71.8153 268.048 72.5097 266.802 73.8985C265.556 75.2873 264.932 77.05 264.932 79.1867V92.1667C264.932 92.5941 265.039 92.968 265.253 93.2885C265.502 93.5733 265.752 93.787 266.001 93.9295C266.25 94.0719 266.482 94.2499 266.695 94.4636C266.944 94.6417 267.069 94.8375 267.069 95.0512V95.2648C267.069 95.7278 266.695 95.9593 265.947 95.9593H259.27C258.558 95.9593 258.202 95.7278 258.202 95.2648V95.0512C258.202 94.7663 258.54 94.3924 259.217 93.9295C259.929 93.4665 260.285 92.8789 260.285 92.1667V75.9817C260.285 75.3051 260.089 74.7887 259.698 74.4326C259.342 74.0409 258.968 73.7382 258.576 73.5246C258.22 73.3109 258.042 73.0794 258.042 72.8302V72.6699C258.042 72.3494 258.327 72.0823 258.896 71.8687L262.903 69.9457C263.401 69.6964 263.775 69.6608 264.024 69.8389C264.274 70.0169 264.398 70.3196 264.398 70.7469V74.6463C265.182 73.1507 266.303 71.9577 267.764 71.0674C269.259 70.1772 270.915 69.732 272.731 69.732C275.509 69.732 277.824 70.7113 279.675 72.6699C281.563 74.6285 282.631 77.5842 282.88 81.537L283.468 92.0599Z" fill="#151515"/>
<path d="M243.138 40.4067C243.58 40.4067 243.801 40.575 243.801 40.9117V41.0696C243.801 41.4483 243.495 41.8376 242.885 42.2374C242.275 42.6162 241.591 42.8056 240.834 42.8056C239.95 42.8056 239.182 42.6372 238.529 42.3005C237.877 41.9428 237.225 41.3957 236.572 40.6592C234.679 42.0901 232.438 42.8056 229.849 42.8056C227.345 42.8056 225.409 42.3111 224.042 41.3221C222.695 40.3331 222.021 38.8496 222.021 36.8715C222.021 34.4306 223.778 32.2843 227.293 30.4325C226.388 29.4225 225.704 28.5176 225.241 27.718C224.778 26.8973 224.547 26.003 224.547 25.0351C224.547 23.4569 225.125 22.1943 226.283 21.2474C227.44 20.2794 228.955 19.7954 230.828 19.7954C232.553 19.7954 233.953 20.2268 235.026 21.0896C236.099 21.9523 236.636 23.0886 236.636 24.4985C236.636 26.7711 235.089 28.6228 231.996 30.0537L237.488 36.0509C238.372 33.9256 238.813 31.5478 238.813 28.9174C238.813 28.5387 239.045 28.2651 239.508 28.0968C239.971 27.9284 240.423 27.9284 240.865 28.0968C241.328 28.2441 241.56 28.5281 241.56 28.949C241.56 32.4631 240.76 35.4406 239.161 37.8816L239.792 38.5444C240.928 39.786 241.78 40.4067 242.349 40.4067H243.138ZM230.449 21.0264C229.797 21.0264 229.271 21.3105 228.871 21.8787C228.492 22.4258 228.303 23.1623 228.303 24.0881C228.303 24.9299 228.492 25.6874 228.871 26.3608C229.271 27.0131 229.881 27.7706 230.702 28.6334C232.259 27.6023 233.037 26.2029 233.037 24.4353C233.037 23.4043 232.795 22.5836 232.311 21.9734C231.848 21.3421 231.228 21.0264 230.449 21.0264ZM230.386 41.6693C232.301 41.6693 233.974 40.9012 235.405 39.3651L228.555 31.8213C226.703 33.147 225.778 34.9461 225.778 37.2187C225.778 38.5444 226.177 39.6176 226.977 40.4383C227.777 41.2589 228.913 41.6693 230.386 41.6693Z" fill="#151515"/>
<path fill-rule="evenodd" clip-rule="evenodd" d="M47.338 48.3234C47.4889 48.292 47.5486 48.1006 47.4702 47.9679C47.3925 47.8363 47.198 47.7932 47.0969 47.9078C47.0537 47.9567 47.0095 48.0068 46.9641 48.0582C46.8453 48.1926 46.9653 48.4004 47.141 48.3642C47.2069 48.3506 47.2725 48.337 47.338 48.3234ZM50.1918 61.268C51.1939 60.7876 52.3799 60.897 53.2749 61.5557L60.1023 66.5807C60.9731 67.2216 60.8078 68.5684 59.8078 68.9797L51.8448 72.2546C51.1145 72.5549 50.7821 73.4037 51.1143 74.1201L54.8196 82.1124C55.319 83.1897 54.3216 84.3553 53.1801 84.0286L43.7257 81.3225C42.9534 81.1015 42.1554 81.581 41.9881 82.3668L39.8497 92.4093C39.6227 93.4753 38.311 93.8747 37.5284 93.1161L31.4539 87.2274C30.8365 86.6288 29.8287 86.7309 29.3438 87.441L25.6239 92.8887C25.0237 93.7676 23.6982 93.6707 23.2323 92.7139L18.7028 83.4132C18.4326 82.8584 17.8281 82.5489 17.2199 82.6541L7.78664 84.2856C6.56401 84.4971 5.70045 83.1192 6.42378 82.1111L12.097 74.2041C12.6127 73.4853 12.3325 72.4739 11.5203 72.123L0.836779 67.5076C-0.180271 67.0682 -0.296702 65.6724 0.633498 65.0706L7.05272 60.9176C7.71056 60.492 7.88535 59.6063 7.43849 58.9627L2.37843 51.6749C1.77532 50.8063 2.32755 49.6093 3.37983 49.5044L12.1559 48.6296C12.3932 48.606 12.6491 48.696 12.7503 48.9121C12.8437 49.1117 12.9386 49.3108 13.0347 49.5093C13.7265 50.9511 14.4978 52.3531 15.2683 53.7538L15.2684 53.7539L15.2684 53.754C15.537 54.2421 15.8056 54.7305 16.0706 55.2199C18.4465 59.5918 20.6011 63.1255 24.1348 67.736C26.053 70.2387 27.7276 70.3988 29.0257 69.9976C29.7721 69.7669 30.5083 69.5566 31.243 69.3468L31.2452 69.3461C33.2186 68.7824 35.1822 68.2215 37.3028 67.2782C39.8047 66.1634 44.6948 63.9031 50.1918 61.268Z" fill="#151515"/>
<path d="M49.5093 41.2579C48.8558 41.397 48.1786 41.5411 47.4703 41.6825L47.8014 41.3081C48.227 40.8266 48.5391 40.4733 48.8558 40.1369C49.6322 39.2972 50.4183 38.4678 51.2034 37.6394C53.1997 35.533 55.1901 33.4328 57.002 31.1852C58.3611 29.4529 59.3891 27.4795 60.0333 25.3658C60.844 22.7522 58.4203 20.2203 56.2124 21.2104C54.6302 21.9224 53.1728 22.9354 51.7256 23.9414C51.4553 24.1292 51.1855 24.3168 50.9152 24.5021C50.0425 25.174 48.4988 26.1561 47.7943 26.6466C47.7943 26.6466 48.4438 25.6339 48.7127 24.9611C49.1641 23.8317 49.7154 22.8563 50.1221 21.7085C52.7363 14.3301 52.9327 10.8902 52.7029 8.83909C52.4731 6.78802 50.9429 5.04066 48.6459 5.51828C46.9662 5.86218 45.958 6.99096 44.9884 8.12662C41.6531 12.0259 41.3079 13.257 39.3263 17.9591C38.7962 19.2158 38.2676 20.4728 37.7077 21.804L37.7049 21.8107L37.6986 21.8257L37.6968 21.8299C37.328 22.7069 36.9455 23.6163 36.5401 24.5791L36.2633 23.3685C36.1121 22.6787 35.9745 21.9831 35.8369 21.2869L35.8368 21.2867C35.4938 19.5518 35.1497 17.8121 34.5913 16.1465C33.5988 13.1741 30.2673 12.6297 27.995 14.7653C27.1653 15.5406 26.4955 16.4743 26.0242 17.5126C25.5528 18.551 25.2892 19.6736 25.2484 20.8159C25.0767 23.7298 25.1003 26.6533 25.1238 29.5751C25.1283 30.1455 25.1329 30.7158 25.1361 31.2859C25.1318 32.2362 25.227 33.1872 25.3221 34.1381C25.3651 34.5684 25.1992 35.127 25.233 35.5571L24.9265 35.1373L24.9264 35.1372C24.7747 34.8501 24.6225 34.5619 24.4832 34.268C24.1724 33.626 23.882 32.9698 23.5916 32.3136C22.9559 30.8776 22.3202 29.4412 21.4705 28.1513C19.8819 25.7369 17.2657 24.4957 15.3144 26.9491C14.4246 28.1739 13.9735 29.6688 14.0351 31.1884C14.2635 35.1851 15.5298 38.9752 17.2799 42.5797C17.9034 43.8759 18.5984 45.1364 19.2927 46.3957L19.2928 46.3958C19.5348 46.8348 19.7769 47.2739 20.0157 47.714C22.1567 51.6447 24.0979 54.822 27.2807 58.9682C29.0085 61.219 30.5151 61.3643 31.6825 61.0051C32.3537 60.7986 33.0157 60.6103 33.6764 60.4225L33.6785 60.4218C35.4533 59.9172 37.2193 59.4151 39.1262 58.5694C42.2551 57.1797 49.5372 53.8034 56.6644 50.2989C57.0797 50.0947 57.4803 49.8988 57.8686 49.7089C60.6748 48.3364 62.8397 47.2775 65.2552 45.6873C65.5785 45.4809 65.8439 45.1941 66.0262 44.8543C66.2084 44.5144 66.3015 44.1329 66.2964 43.7461C66.2913 43.3593 66.1883 42.9802 65.9972 42.6448C65.806 42.3095 65.5331 42.0291 65.2046 41.8305C64.5225 41.3969 63.775 41.0791 62.9916 40.8898C59.8648 40.1578 56.6306 40.027 53.4577 40.5043C52.1637 40.6931 50.884 40.9654 49.5094 41.2579L49.5093 41.2579Z" fill="#151515"/>
</svg>
