<svg width="56" height="56" viewBox="0 0 56 56" fill="none" xmlns="http://www.w3.org/2000/svg">
<rect width="10" height="4.2" rx="0.7" transform="matrix(-0.707107 -0.707107 -0.707107 0.707107 20.5703 14.5699)" fill="black"/>
<rect width="9.70615" height="4.2" rx="0.7" transform="matrix(-0.707107 -0.707107 -0.707107 0.707107 49.8838 43.8835)" fill="black"/>
<circle cx="28" cy="28" r="25.9" stroke="black" stroke-width="4.2"/>
<path d="M31.2136 19.8818C31.2136 20.9197 30.4996 22.9957 28.0008 22.9957C25.502 22.9957 24.7881 20.9197 24.7881 19.8818C24.7881 17.3977 26.5729 14 28.0008 14C29.4287 14 31.2136 17.3977 31.2136 19.8818Z" fill="black"/>
<path d="M26.2107 26.4888C26.8779 27.2839 27.6654 29.3331 25.7512 30.9393C23.837 32.5454 21.9557 31.4141 21.2885 30.619C19.6918 28.7161 18.8751 24.966 19.9689 24.0482C21.0627 23.1303 24.614 24.5859 26.2107 26.4888Z" fill="black"/>
<path d="M26.2107 35.4844C26.8779 36.2796 27.6654 38.3287 25.7512 39.9349C23.837 41.5411 21.9557 40.4098 21.2885 39.6147C19.6918 37.7117 18.8751 33.9617 19.9689 33.0438C21.0627 32.126 24.614 33.5815 26.2107 35.4844Z" fill="black"/>
<path d="M34.7128 30.6186C34.0456 31.4137 32.1643 32.545 30.2501 30.9389C28.3359 29.3327 29.1234 27.2835 29.7906 26.4884C31.3873 24.5855 34.9386 23.1299 36.0324 24.0478C37.1262 24.9656 36.3095 28.7157 34.7128 30.6186Z" fill="black"/>
<path d="M34.7128 39.6145C34.0456 40.4096 32.1643 41.5409 30.2501 39.9347C28.3359 38.3285 29.1234 36.2794 29.7906 35.4843C31.3873 33.5813 34.9386 32.1258 36.0324 33.0437C37.1262 33.9615 36.3095 37.7115 34.7128 39.6145Z" fill="black"/>
</svg>
