<svg width="56" height="56" viewBox="0 0 56 56" fill="none" xmlns="http://www.w3.org/2000/svg">
<path fill-rule="evenodd" clip-rule="evenodd" d="M13.9414 21.6602C13.9381 21.6589 13.9345 21.661 13.9341 21.6644C13.8791 22.0837 13.871 22.5166 13.9151 22.9572L16.0226 44.0322C16.0703 44.5102 16.3635 44.9228 16.8226 45.0641C18.1412 45.4698 21.4273 46.2 27.9993 46.2C34.5713 46.2 37.8574 45.4698 39.176 45.0641C39.6352 44.9228 39.9283 44.5102 39.9761 44.0322L42.0836 22.9572C42.1277 22.5166 42.1196 22.0837 42.0646 21.6644C42.0642 21.661 42.0605 21.6589 42.0573 21.6602C40.0525 22.488 35.6659 23.8 27.9993 23.8C20.3328 23.8 15.9461 22.488 13.9414 21.6602Z" fill="black"/>
<path d="M12.5996 14.0985C12.5996 13.1623 13.0763 12.2971 13.9416 11.9398C15.9464 11.112 20.3331 9.8 27.9996 9.8C35.6662 9.8 40.0528 11.112 42.0576 11.9398C42.9229 12.2971 43.3996 13.1623 43.3996 14.0985V16.7015C43.3996 17.6377 42.9229 18.5029 42.0576 18.8602C40.0528 19.688 35.6662 21 27.9996 21C20.3331 21 15.9464 19.688 13.9416 18.8602C13.0763 18.5029 12.5996 17.6377 12.5996 16.7015V14.0985Z" fill="black"/>
<path fill-rule="evenodd" clip-rule="evenodd" d="M32.1995 30.8C32.1995 29.2536 30.3191 28 27.9995 28C25.6799 28 23.7995 29.2536 23.7995 30.8H21.9378C21.4696 30.8 21.1334 31.2506 21.2667 31.6993L23.6522 39.7283C23.7054 39.9076 23.7651 40.1029 23.9327 40.186C24.2876 40.3622 25.2719 40.6 27.9995 40.6C30.7272 40.6 31.7115 40.3622 32.0664 40.186C32.234 40.1029 32.2937 39.9076 32.3469 39.7283L34.7323 31.6993C34.8657 31.2506 34.5295 30.8 34.0613 30.8H32.1995Z" fill="white"/>
</svg>
