<svg width="56" height="56" viewBox="0 0 56 56" fill="none" xmlns="http://www.w3.org/2000/svg">
<path d="M21.7255 16.4883C21.4154 16.0231 21.7489 15.4 22.308 15.4H37.4254C37.6594 15.4 37.878 15.5169 38.0078 15.7117L39.8745 18.5117C40.1846 18.9769 39.8511 19.6 39.292 19.6H24.1746C23.9406 19.6 23.722 19.483 23.5922 19.2883L21.7255 16.4883Z" fill="black"/>
<path d="M21 9.79996C21 9.02677 21.6268 8.39996 22.4 8.39996H36.4C37.1732 8.39996 37.8 9.02676 37.8 9.79996V11.9C37.8 12.2866 37.4866 12.6 37.1 12.6H21.7C21.3134 12.6 21 12.2866 21 11.9V9.79996Z" fill="black"/>
<rect x="23.8008" y="22.4" width="16.8" height="25.2" rx="1.4" fill="black"/>
<rect x="15.4004" y="22.4" width="5.6" height="25.2" rx="1.4" fill="black"/>
<path d="M19.6924 18.9H16.7084L18.2004 16.6619L19.6924 18.9Z" fill="black" stroke="black" stroke-width="1.4"/>
</svg>
