<svg width="56" height="56" viewBox="0 0 56 56" fill="none" xmlns="http://www.w3.org/2000/svg">
<path fill-rule="evenodd" clip-rule="evenodd" d="M15.7096 24.8895C15.1628 25.4362 14.2764 25.4362 13.7297 24.8895L11.1502 22.31C9.63744 20.7973 9.63745 18.3446 11.1502 16.8318L17.5514 10.4306C19.0641 8.91786 21.5168 8.91786 23.0296 10.4306L25.6091 13.0101C26.1558 13.5568 26.1558 14.4433 25.6091 14.99L15.7096 24.8895ZM43.4282 30.8292C42.8814 30.2825 41.995 30.2825 41.4483 30.8292L31.5488 40.7287C31.002 41.2754 31.002 42.1618 31.5488 42.7086L34.3805 45.5403C35.8933 47.0531 38.346 47.0531 39.8588 45.5403L46.2599 39.1392C47.7727 37.6264 47.7727 35.1737 46.2599 33.6609L43.4282 30.8292Z" fill="black"/>
<rect x="8.39941" y="36.4" width="39.2" height="16.8" rx="3.87371" transform="rotate(-45 8.39941 36.4)" fill="black"/>
<rect x="20.4551" y="31.1323" width="14.7" height="7.2" rx="2.58247" transform="rotate(-45 20.4551 31.1323)" fill="white"/>
</svg>
