<svg width="56" height="56" viewBox="0 0 56 56" fill="none" xmlns="http://www.w3.org/2000/svg">
<rect width="10" height="4.2" rx="0.7" transform="matrix(-0.707107 -0.707107 -0.707107 0.707107 20.5693 14.5699)" fill="black"/>
<rect width="9.70615" height="4.2" rx="0.7" transform="matrix(-0.707107 -0.707107 -0.707107 0.707107 49.8828 43.8835)" fill="black"/>
<circle cx="28" cy="28" r="25.9" stroke="black" stroke-width="4.2"/>
<path fill-rule="evenodd" clip-rule="evenodd" d="M28.0557 25.8728C30.8182 25.8728 32.1349 29.2734 32.7218 29.9161C33.3088 30.5589 35.629 32.3332 35.629 34.5874C35.629 36.6574 33.5569 37.8992 32.7218 37.794C31.203 37.6026 29.1446 36.7835 28.0557 36.9259C26.9668 36.7835 24.9084 37.6026 23.3896 37.794C22.5545 37.8992 20.4824 36.6574 20.4824 34.5874C20.4824 32.3332 22.8026 30.5589 23.3896 29.9161C23.9765 29.2734 25.2932 25.8728 28.0557 25.8728ZM24.9424 25.2069C23.5734 25.3761 22.2727 23.9478 22.0372 22.0166C21.8016 20.0855 22.7204 18.3828 24.0894 18.2136C25.4583 18.0444 26.759 19.4727 26.9945 21.4039C27.2301 23.335 26.3113 25.0377 24.9424 25.2069ZM21.1035 29.3793C19.9008 29.8684 18.4139 28.9895 17.7824 27.4161C17.1509 25.8427 17.614 24.1707 18.8167 23.6816C20.0194 23.1924 21.5063 24.0713 22.1378 25.6447C22.7692 27.2181 22.3062 28.8901 21.1035 29.3793ZM31.0576 25.2157C29.6887 25.0465 28.7699 23.3439 29.0055 21.4127C29.241 19.4816 30.5417 18.0532 31.9106 18.2224C33.2796 18.3916 34.1984 20.0943 33.9628 22.0254C33.7273 23.9566 32.4266 25.3849 31.0576 25.2157ZM34.8965 29.3881C33.6938 28.8989 33.2308 27.2269 33.8622 25.6535C34.4937 24.0802 35.9806 23.2012 37.1833 23.6904C38.386 24.1795 38.8491 25.8515 38.2176 27.4249C37.5861 28.9983 36.0992 29.8772 34.8965 29.3881Z" fill="black"/>
</svg>
