<svg width="56" height="56" viewBox="0 0 56 56" fill="none" xmlns="http://www.w3.org/2000/svg">
<path d="M15.5119 42.5087C15.5465 42.799 15.7453 42.9683 16.0289 43.039L25.0301 45.2831C25.4718 45.3932 25.8994 45.0591 25.8994 44.6039V40.0935C25.8994 39.639 25.473 39.3051 25.0317 39.4139L16.0298 41.6349C15.6788 41.7215 15.4691 42.1498 15.5119 42.5087Z" fill="black"/>
<path d="M28 23.6577C28 24.0443 28.3134 24.3577 28.7 24.3577H33.0363C33.3837 24.3577 33.7431 24.389 34.1039 24.4502C34.2508 24.4733 34.3964 24.3915 34.4418 24.2498L36.8794 16.6426C37.0001 16.266 36.7852 15.8635 36.3991 15.7781C35.3729 15.5511 34.1418 15.3998 33.0363 15.3998H28.7C28.3134 15.3998 28 15.7132 28 16.0998V23.6577Z" fill="black"/>
<path d="M38.8588 26.7771C39.069 27.0647 39.4476 27.1909 39.7733 27.0467L46.2271 24.1899C46.5929 24.0279 46.7502 23.5918 46.5525 23.244C44.9945 20.5023 42.5756 18.3319 39.6759 17.0741C39.31 16.9154 38.8943 17.1165 38.7709 17.4958L36.5935 24.1883C36.483 24.5277 36.6482 24.8923 36.9573 25.071C37.7051 25.5034 38.3526 26.0848 38.8588 26.7771Z" fill="black"/>
<path d="M13.1792 39.9262C14.3037 41.5321 13.8553 43.7861 12.1778 44.9607C11.2079 45.6399 10.0394 45.8095 9.00891 45.5213C8.73636 45.4451 8.7151 45.0802 8.94152 44.9104C9.60265 44.4146 10.6294 43.4417 10.746 42.1169C10.8634 40.7818 9.96615 39.6996 9.3744 39.1399C9.17232 38.9487 9.22555 38.5936 9.49744 38.5349C10.8822 38.2358 12.3458 38.7359 13.1792 39.9262Z" fill="black"/>
<path d="M47.6006 26.6016C47.4769 26.2177 47.0434 26.0407 46.6762 26.2076L40.4614 29.031C40.1427 29.1758 39.9846 29.533 40.0588 29.8752C40.2365 30.6952 40.2472 31.4782 40.045 32.4235C39.9728 32.7613 40.1313 33.1122 40.4454 33.2559L46.65 36.094C47.0138 36.2604 47.4444 36.0893 47.5711 35.7098C48.4734 33.0068 48.598 29.6964 47.6006 26.6016Z" fill="black"/>
<path d="M36.954 37.2016C36.6458 37.3788 36.4818 37.7417 36.591 38.08L38.7575 44.7929C38.8812 45.1763 39.3032 45.3777 39.6712 45.2136C42.5727 43.9196 44.9816 41.7751 46.5432 39.1007C46.7457 38.7539 46.5915 38.3145 46.2252 38.1498L39.7861 35.2547C39.4628 35.1093 39.0852 35.2315 38.8722 35.5149C38.3591 36.1974 37.7034 36.7709 36.954 37.2016Z" fill="black"/>
<path d="M28.5647 38.9444C28.2366 39.009 28 39.2967 28 39.6312V45.4962C28 45.8248 28.2285 46.1091 28.5493 46.1798L30.2197 46.548C31.1002 46.7442 31.9763 46.8555 32.8398 46.8962C34.0374 46.9214 35.2151 46.816 36.3802 46.5737C36.7733 46.492 36.9981 46.0844 36.8769 45.7016L34.5644 38.3963C34.4569 38.0566 34.1113 37.8519 33.7617 37.9208L28.5647 38.9444Z" fill="black"/>
<path d="M13.8764 13.3004C13.8764 14.8371 15.0058 16.0868 16.3941 16.0868H18.9183V17.5H16.3941C14.3019 17.5 12.5996 15.6162 12.5996 13.3004C12.5996 10.9846 14.3019 9.10003 16.3941 9.10002H34.3612C34.7138 9.10002 34.9996 9.41606 34.9996 9.80664C34.9996 10.1972 34.7138 10.5132 34.3612 10.5132H16.3941C15.0058 10.5132 13.8764 11.7636 13.8764 13.3004Z" fill="black" stroke="black" stroke-width="1.4"/>
<path d="M24.4994 15.3998H16.8644C16.0663 15.3998 15.4358 16.0656 15.5521 16.8552C15.7495 18.1958 16.1901 20.144 17.1494 21.279C18.748 23.1703 22.4987 23.6458 24.5317 23.7628C25.2919 23.8065 25.8994 23.1898 25.8994 22.4283V16.7998C25.8994 16.0267 25.2726 15.3998 24.4994 15.3998Z" fill="black"/>
<circle cx="22.4" cy="18.2" r="1.4" fill="white"/>
</svg>
