<svg width="56" height="56" viewBox="0 0 56 56" fill="none" xmlns="http://www.w3.org/2000/svg">
<ellipse cx="27.6854" cy="33.4201" rx="9.38365" ry="6.42526" fill="black"/>
<path fill-rule="evenodd" clip-rule="evenodd" d="M19.9261 25.699C19.1773 26.2347 17.845 25.8617 17.7363 24.9474C17.4134 22.2337 17.1783 19.3242 17.2813 17.1103C17.3184 16.3137 18.2399 16.0128 18.8049 16.5755L21.843 19.6013C22.5251 20.2808 22.9956 19.8836 23.7137 19.2773C24.5114 18.6039 25.6146 17.6725 27.653 17.6725C29.6914 17.6725 30.7947 18.6039 31.5923 19.2773C32.3104 19.8836 32.7808 20.2808 33.463 19.6013L36.1543 16.9209C36.6895 16.3879 37.566 16.6287 37.6471 17.3796C37.876 19.4992 37.6666 22.2806 37.3228 24.899C37.2095 25.7617 36.0414 26.109 35.3256 25.6142C33.4213 24.2976 30.7034 23.4739 27.6862 23.4739C24.6047 23.4739 21.8354 24.333 19.9261 25.699Z" fill="black"/>
<ellipse cx="23.5807" cy="33.4202" rx="1.75943" ry="1.75234" fill="white"/>
<ellipse cx="31.7917" cy="33.4202" rx="1.75943" ry="1.75234" fill="white"/>
<rect width="6.52293" height="4.2" rx="0.7" transform="matrix(-0.707107 -0.707107 -0.707107 0.707107 18.1104 12.1111)" fill="black"/>
<rect width="11.3502" height="4.2" rx="0.7" transform="matrix(-0.707107 -0.707107 -0.707107 0.707107 49.8828 43.8835)" fill="black"/>
<circle cx="28" cy="28" r="25.9" stroke="black" stroke-width="4.2"/>
</svg>
