<svg width="56" height="56" viewBox="0 0 56 56" fill="none" xmlns="http://www.w3.org/2000/svg">
<rect width="10" height="4.2" rx="0.7" transform="matrix(-0.707107 -0.707107 -0.707107 0.707107 20.5693 14.5699)" fill="black"/>
<rect width="9.70615" height="4.2" rx="0.7" transform="matrix(-0.707107 -0.707107 -0.707107 0.707107 49.8828 43.8835)" fill="black"/>
<path d="M33.3608 14C30.437 14 28.673 15.5005 27.4359 17.15C26.9201 17.8377 26.4773 18.5761 26.0852 19.2299C26.0207 19.3376 25.9575 19.4429 25.8956 19.5454C25.4363 20.3056 25.0557 20.8909 24.6538 21.2928C23.3577 22.5888 21.4699 23.3334 19.5813 23.8508C18.848 24.0517 18.1459 24.2108 17.4918 24.359C17.309 24.4004 17.13 24.4409 16.9551 24.4813C16.2057 24.6544 15.4408 24.8419 14.9136 25.1055C13.8449 25.6399 12.0915 26.7625 11.3459 28.7342C10.565 30.7991 11.0154 33.4189 13.58 36.6247C14.8236 38.1793 17.1459 39.0414 19.6959 39.4263C22.3017 39.8196 25.3787 39.7507 28.4036 39.2358C31.4274 38.7211 34.4546 37.7513 36.9425 36.3015C39.4234 34.8556 41.4555 32.8783 42.3095 30.3162C44.006 25.2267 43.2514 21.1375 41.2645 18.2986C39.3029 15.4957 36.1935 14 33.3608 14Z" fill="white" stroke="black" stroke-width="2"/>
<path d="M33.3604 18.0001C29.3933 18.0001 27.548 24.5341 25.9611 25.5476C23.6013 27.0549 19.2964 27.1694 18.0269 27.5748C16.4401 28.0816 13.3624 31.5519 17.2335 34.6427C20.4071 37.1766 36.2755 34.163 38.6558 29.6019C41.2145 24.6989 37.3274 18.0001 33.3604 18.0001Z" fill="black"/>
<path d="M20.3604 26C22.6937 27.6666 27.1604 33.8 26.3604 37C26.112 35.0133 27.3437 29.3247 32.9496 26.9111M40.3604 25C37.3001 25.408 34.8685 26.0848 32.9496 26.9111M32.9496 26.9111C32.7532 23.9407 32.1604 17.8 31.3604 17" stroke="white" stroke-width="2"/>
<circle cx="28" cy="28" r="25.9" stroke="black" stroke-width="4.2"/>
</svg>
