<svg width="56" height="56" viewBox="0 0 56 56" fill="none" xmlns="http://www.w3.org/2000/svg">
<path fill-rule="evenodd" clip-rule="evenodd" d="M25.956 14.3944C26.9251 8.5797 34.9127 3.62495 40.8837 12.1552C42.3743 14.2846 42.1639 16.252 41.9856 17.9188C41.8514 19.1732 41.7355 20.2573 42.3765 21.1119C42.9029 21.8139 43.4706 22.392 44.0311 22.9628C45.8545 24.8198 47.6012 26.5987 47.6012 32.3078C47.6012 35.5271 44.9629 38.4688 41.6627 39.815C40.6435 40.2308 39.7726 39.1553 39.9766 38.0736C40.4599 35.5106 39.9981 32.8809 38.3672 31.132C35.205 27.741 32.9682 27.0316 30.8466 26.8234C30.0886 26.749 29.506 26.1247 29.4115 25.3689C29.3355 24.7608 29.1903 24.0974 28.9416 23.3511C28.6631 22.5156 28.1597 21.8934 27.6348 21.2446C26.5145 19.8598 25.2961 18.3538 25.956 14.3944Z" fill="black"/>
<path d="M16.7238 22.4674C6.53923 20.3011 4.07662 29.3722 7.33344 34.2858C10.5903 39.1993 13.2012 37.4803 15.6254 38.8001C19.7714 41.0573 19.1518 43.6762 23.2978 45.9333C34.1717 52.1221 40.471 38.0835 35.3807 32.6248C30.2903 27.166 27.5978 28.6563 23.924 27.9999C20.2503 27.3435 20.9807 23.3729 16.7238 22.4674Z" fill="black"/>
<circle cx="31.6769" cy="14.1498" r="1.49278" transform="rotate(-30 31.6769 14.1498)" fill="white"/>
<circle cx="36.4112" cy="13.4393" r="1.49278" transform="rotate(-30 36.4112 13.4393)" fill="white"/>
<circle cx="37.1222" cy="18.1741" r="1.49278" transform="rotate(-30 37.1222 18.1741)" fill="white"/>
<circle cx="11.6132" cy="29.2032" r="1.49278" transform="rotate(-55 11.6132 29.2032)" fill="white"/>
<circle cx="15.6034" cy="26.5582" r="1.49278" transform="rotate(-55 15.6034 26.5582)" fill="white"/>
<circle cx="18.249" cy="30.549" r="1.49278" transform="rotate(-55 18.249 30.549)" fill="white"/>
</svg>
