<svg width="56" height="56" viewBox="0 0 56 56" fill="none" xmlns="http://www.w3.org/2000/svg">
<path d="M31.5 13.4077C31.5 14.5385 30.7222 16.8 28 16.8C25.2778 16.8 24.5 14.5385 24.5 13.4077C24.5 10.7015 26.4444 7 28 7C29.5556 7 31.5 10.7015 31.5 13.4077Z" fill="black"/>
<path d="M26.0504 20.6053C26.7773 21.4715 27.6352 23.7039 25.5498 25.4537C23.4645 27.2036 21.415 25.9711 20.6881 25.1048C18.9486 23.0318 18.0589 18.9464 19.2505 17.9465C20.4421 16.9466 24.3109 18.5323 26.0504 20.6053Z" fill="black"/>
<path d="M26.0504 30.4053C26.7773 31.2715 27.6352 33.5039 25.5498 35.2537C23.4645 37.0036 21.415 35.7711 20.6881 34.9048C18.9486 32.8318 18.0589 28.7464 19.2505 27.7465C20.4421 26.7466 24.3109 28.3323 26.0504 30.4053Z" fill="black"/>
<path d="M26.0504 40.2053C26.7773 41.0715 27.6352 43.3039 25.5498 45.0537C23.4645 46.8036 21.415 45.5711 20.6881 44.7048C18.9486 42.6318 18.0589 38.5464 19.2505 37.5465C20.4421 36.5466 24.3109 38.1323 26.0504 40.2053Z" fill="black"/>
<path d="M35.3119 25.1046C34.585 25.9708 32.5355 27.2033 30.4502 25.4535C28.3649 23.7037 29.2227 21.4713 29.9496 20.6051C31.6891 18.532 35.5579 16.9464 36.7495 17.9463C37.9411 18.9462 37.0514 23.0315 35.3119 25.1046Z" fill="black"/>
<path d="M35.3119 34.9046C34.585 35.7708 32.5355 37.0033 30.4502 35.2535C28.3649 33.5037 29.2227 31.2713 29.9496 30.4051C31.6891 28.332 35.5579 26.7464 36.7495 27.7463C37.9411 28.7462 37.0514 32.8315 35.3119 34.9046Z" fill="black"/>
<path d="M35.3119 44.7046C34.585 45.5708 32.5355 46.8033 30.4502 45.0535C28.3649 43.3037 29.2227 41.0713 29.9496 40.2051C31.6891 38.132 35.5579 36.5464 36.7495 37.5463C37.9411 38.5462 37.0514 42.6315 35.3119 44.7046Z" fill="black"/>
</svg>
