<svg width="56" height="56" viewBox="0 0 56 56" fill="none" xmlns="http://www.w3.org/2000/svg">
<path d="M35 21.7C35 23.8 33.4444 28 28 28C22.5556 28 21 23.8 21 21.7C21 16.6742 24.8889 9.79996 28 9.79996C31.1111 9.79996 35 16.6742 35 21.7Z" fill="black"/>
<path d="M24.8376 31.3668C26.1874 32.9755 27.7551 37.1428 23.7929 40.4674C19.8308 43.7921 15.999 41.5246 14.6492 39.9159C11.4187 36.0659 9.83011 28.4252 12.0942 26.5254C14.3583 24.6256 21.607 27.5168 24.8376 31.3668Z" fill="black"/>
<path d="M41.7394 40.065C40.3896 41.6737 36.5578 43.9411 32.5957 40.6165C28.6335 37.2919 30.2012 33.1246 31.551 31.5159C34.7815 27.6659 42.0303 24.7747 44.2944 26.6745C46.5585 28.5743 44.9699 36.215 41.7394 40.065Z" fill="black"/>
</svg>
