<svg width="56" height="56" viewBox="0 0 56 56" fill="none" xmlns="http://www.w3.org/2000/svg">
<rect width="10" height="4.2" rx="0.7" transform="matrix(-0.707107 -0.707107 -0.707107 0.707107 20.5693 14.5699)" fill="black"/>
<rect width="9.70615" height="4.2" rx="0.7" transform="matrix(-0.707107 -0.707107 -0.707107 0.707107 49.8828 43.8835)" fill="black"/>
<circle cx="28" cy="28" r="25.9" stroke="black" stroke-width="4.2"/>
<rect x="26" y="30" width="4" height="10" rx="1" fill="black"/>
<path d="M21.8461 40.0513L26.7351 38.4216C27.5562 38.1479 28.4438 38.1479 29.2649 38.4216L34.1539 40.0513C35.2301 40.41 34.9721 42 33.8377 42H22.1623C21.0279 42 20.7699 40.41 21.8461 40.0513Z" fill="black"/>
<path fill-rule="evenodd" clip-rule="evenodd" d="M33.0658 17.4772C32.8296 16.6054 32.0385 16 31.1353 16H24.8627C23.9595 16 23.1684 16.6054 22.9323 17.4772L22.2509 19.9932C21.42 23.0612 20.5708 26.5289 22.438 29.1011C23.7173 30.8635 25.7323 32 27.999 32C30.2657 32 32.2808 30.8635 33.56 29.1011C35.4272 26.5289 34.5781 23.0612 33.7472 19.9932L33.0658 17.4772Z" fill="black"/>
</svg>
