<svg width="56" height="56" viewBox="0 0 56 56" fill="none" xmlns="http://www.w3.org/2000/svg">
<circle cx="28.0002" cy="30.7999" r="14" stroke="black" stroke-width="5.6"/>
<rect width="14.0972" height="5.6" rx="1.4" transform="matrix(0.707107 -0.707107 -0.707107 -0.707107 39.0303 22.0392)" fill="black"/>
<path d="M36.4004 9.79993C36.4004 10.5731 37.0272 11.1999 37.8004 11.1999H49.0004C49.7736 11.1999 50.4004 10.5731 50.4004 9.79993V6.99993C50.4004 6.22673 49.7736 5.59993 49.0004 5.59993L37.8004 5.59993C37.0272 5.59993 36.4004 6.22673 36.4004 6.99993V9.79993Z" fill="black"/>
<path d="M47.6002 19.5999C46.827 19.5999 46.2002 18.9731 46.2002 18.1999V6.99993C46.2002 6.22673 46.827 5.59993 47.6002 5.59993H50.4002C51.1734 5.59993 51.8002 6.22673 51.8002 6.99993V18.1999C51.8002 18.9731 51.1734 19.5999 50.4002 19.5999H47.6002Z" fill="black"/>
</svg>
