<svg width="56" height="56" viewBox="0 0 56 56" fill="none" xmlns="http://www.w3.org/2000/svg">
<path fill-rule="evenodd" clip-rule="evenodd" d="M24.855 15.5445C25.5329 16.0626 25.5305 17.0664 24.9205 17.6631C21.1983 21.304 17.7165 26.6737 16.4044 31.5703C16.0847 32.7634 15.9225 34.4062 16.1389 36.1684C16.2936 37.4278 14.9481 38.6369 14.5141 37.4445C11.3407 28.7257 12.8471 14.672 17.5247 12.9695C19.368 12.2987 22.0669 13.4135 24.855 15.5445Z" fill="black"/>
<path d="M40.1358 38.1056C38.8098 41.7487 33.819 48.1837 25.6333 45.2043C17.4475 42.2249 17.7607 34.0875 19.0867 30.4443C22.2601 21.7255 32.4476 11.9281 37.1251 13.6306C41.8027 15.3331 43.3092 29.3868 40.1358 38.1056Z" fill="black"/>
<path fill-rule="evenodd" clip-rule="evenodd" d="M27.4197 14.4186C26.1515 13.4493 24.9018 12.6903 23.7427 12.2139C23.4668 12.1005 23.4212 11.7113 23.6741 11.5532L27.2587 9.31292C27.7126 9.02918 28.2887 9.02918 28.7426 9.31292L32.3533 11.5696C32.5875 11.7159 32.569 12.0652 32.3258 12.1961C31.0927 12.8595 29.7897 13.7922 28.4931 14.9175C28.2689 15.1121 27.8712 14.9583 27.7024 14.7141C27.6269 14.6049 27.5327 14.505 27.4197 14.4186Z" fill="black"/>
</svg>
