<svg width="56" height="56" viewBox="0 0 56 56" fill="none" xmlns="http://www.w3.org/2000/svg">
<path d="M42.9665 12.145L43.0014 12.1191C43.2653 11.8968 43.5035 11.6482 43.7121 11.3776C44.1255 10.8355 44.4418 10.2316 44.648 9.59056C44.7478 9.27372 44.8231 8.95029 44.8732 8.6229C44.8927 8.45977 44.9237 8.29664 44.9354 8.13351C44.9464 7.97055 44.9464 7.80707 44.9354 7.64411C44.9075 7.29273 44.805 6.95044 44.6341 6.6381C44.4632 6.32577 44.2274 6.04994 43.9412 5.82743C43.7314 5.6655 43.4652 5.5851 43.196 5.60229C42.9268 5.61947 42.6742 5.73297 42.4888 5.92012L42.3995 6.0091C42.1653 6.24711 41.9714 6.51855 41.8248 6.81363C41.7086 7.03755 41.6212 7.27408 41.5646 7.51806C41.483 7.97779 41.4675 8.4264 41.4131 8.87872C41.3587 9.33103 41.2927 9.77594 41.2151 10.2431C41.1801 10.4767 41.1374 10.7139 41.0908 10.9549L41.0248 11.3257C41.0248 11.3924 40.9976 11.4666 40.9898 11.5333C37.4676 11.3628 33.4094 15.2408 31.6425 16.924C30.3287 18.171 29.4801 19.7952 29.227 21.5473C29.11 22.2289 28.8114 22.8702 28.3598 23.4098C27.9083 23.9494 27.3189 24.369 26.6484 24.6282C24.6134 25.449 22.9905 26.9904 22.1203 28.929C21.8487 29.5691 21.4093 30.1318 20.8441 30.5629C20.2789 30.994 19.6071 31.2791 18.8932 31.3907C17.0581 31.6327 15.3569 32.4428 14.0506 33.6968C11.7982 35.8472 5.8139 41.5605 9.65848 45.2309C11.3128 46.8103 14.6059 47.6 17.8952 47.6C21.1844 47.6 24.497 46.8103 26.1319 45.2309C26.7592 44.6282 27.2834 43.9351 27.6853 43.1769C28.0718 42.4093 28.6346 41.7347 29.3318 41.2032C30.029 40.6717 30.8427 40.2971 31.7124 40.1071C33.3346 39.7813 34.8226 39.0119 35.9948 37.8928C37.167 36.7737 37.9729 35.3531 38.3142 33.8043C38.5158 32.9695 38.9131 32.1892 39.476 31.522C40.039 30.8548 40.7531 30.3181 41.5646 29.9522C42.3587 29.5686 43.0847 29.0681 43.716 28.4692C47.0285 25.3104 47.0285 15.9008 43.716 12.7382C43.4885 12.5161 43.2373 12.3172 42.9665 12.145ZM22.8427 42.0869C22.2996 42.6055 21.6076 42.9588 20.8543 43.1019C20.101 43.2451 19.3201 43.1717 18.6104 42.8911C17.9007 42.6105 17.2942 42.1353 16.8674 41.5256C16.4406 40.9159 16.2128 40.199 16.2128 39.4657C16.2128 38.7324 16.4406 38.0155 16.8674 37.4058C17.2942 36.7961 17.9007 36.3209 18.6104 36.0403C19.3201 35.7597 20.101 35.6864 20.8543 35.8295C21.6076 35.9727 22.2996 36.3259 22.8427 36.8445C23.5707 37.5398 23.9797 38.4826 23.9797 39.4657C23.9797 40.4488 23.5707 41.3917 22.8427 42.0869ZM41.5646 22.6892C41.5701 23.5463 41.2644 24.3788 40.6995 25.045C40.1345 25.7112 39.3453 26.1699 38.466 26.3431C37.5867 26.5163 36.6717 26.3933 35.8767 25.995C35.0817 25.5967 34.4559 24.9477 34.1056 24.1585C33.7553 23.3693 33.7023 22.4886 33.9555 21.6663C34.2088 20.844 34.7526 20.1308 35.4946 19.6482C36.2365 19.1655 37.1307 18.9432 38.025 19.0191C38.9193 19.095 39.7584 19.4643 40.3995 20.0643C40.7666 20.406 41.0587 20.8142 41.2587 21.2648C41.4587 21.7155 41.5627 22.1997 41.5646 22.6892ZM32.7259 34.7461C32.1829 35.2647 31.4909 35.6179 30.7376 35.761C29.9842 35.9042 29.2034 35.8308 28.4937 35.5502C27.784 35.2697 27.1774 34.7945 26.7507 34.1847C26.3239 33.575 26.0961 32.8582 26.0961 32.1248C26.0961 31.3915 26.3239 30.6747 26.7507 30.0649C27.1774 29.4552 27.784 28.98 28.4937 28.6994C29.2034 28.4189 29.9842 28.3455 30.7376 28.4886C31.4909 28.6318 32.1829 28.985 32.7259 29.5036C33.454 30.1989 33.8629 31.1417 33.8629 32.1248C33.8629 33.1079 33.454 34.0508 32.7259 34.7461Z" fill="black"/>
</svg>
