<svg width="56" height="56" viewBox="0 0 56 56" fill="none" xmlns="http://www.w3.org/2000/svg">
<path d="M8.39941 37.9162C8.39941 32.0998 13.8094 27.7949 19.4772 29.1012L42.3521 34.3731C45.3925 35.0738 47.5466 37.7808 47.5466 40.901C47.5466 44.6007 44.5474 47.5999 40.8476 47.5999H17.4456C12.4495 47.5999 8.39941 43.5498 8.39941 38.5538V37.9162Z" fill="black"/>
<path fill-rule="evenodd" clip-rule="evenodd" d="M21.0137 18.4139C20.7902 17.831 20.2304 17.4462 19.6061 17.4462H17.4368C16.3794 17.4462 15.6504 18.5064 16.0291 19.4938L18.2779 25.3567C18.4834 25.8924 18.9774 26.2546 19.5401 26.3659C19.7392 26.4053 19.9386 26.4516 20.1381 26.5049L21.7161 26.9269C22.9056 27.245 23.9542 26.0801 23.5132 24.9304L21.0137 18.4139Z" fill="black"/>
<path fill-rule="evenodd" clip-rule="evenodd" d="M48.305 27.2999C48.305 26.1242 47.9319 24.8547 47.4937 23.7228C47.0373 22.5437 46.4227 21.2972 45.7677 20.1033C44.9274 18.5718 43.9843 17.0614 43.1395 15.7954C42.4462 14.7565 41.0305 14.535 40.0208 15.2703C39.0111 16.0056 38.7898 17.4193 39.4799 18.4604C40.2343 19.5985 41.0657 20.9366 41.8022 22.279C42.4019 23.372 42.9166 24.428 43.2757 25.3557C43.6531 26.3305 43.7819 26.972 43.7819 27.2999C43.7819 28.1502 43.3129 29.3925 42.4325 30.7993C42.371 30.8975 42.3086 30.9949 42.2454 31.0913C42.1768 31.1959 42.2326 31.3377 42.3545 31.3658C43.6572 31.666 44.7971 32.3345 45.6747 33.246C45.8439 33.4218 46.1372 33.4057 46.2667 33.1988C47.2683 31.5982 48.305 29.4571 48.305 27.2999Z" fill="black"/>
<path d="M13.9977 18.8011C17.8798 21.2311 27.9733 21.2311 27.9733 17.9911C27.9733 15.8941 23.9262 16.7882 20.9855 15.5611C17.1034 13.9411 16.1455 11.511 12.4449 11.511C9.64526 11.511 10.1156 16.3711 13.9977 18.8011Z" fill="black"/>
<rect width="6.02544" height="12.0559" rx="1.50769" transform="matrix(0.80938 0.587285 -0.588285 0.808654 40.3643 8.4)" fill="black"/>
<path d="M31.255 42.299C32.81 42.299 34.0706 41.0401 34.0706 39.4871C34.0706 37.9341 32.81 36.6751 31.255 36.6751C29.7 36.6751 28.4395 37.9341 28.4395 39.4871C28.4395 41.0401 29.7 42.299 31.255 42.299Z" fill="white"/>
</svg>
