<svg width="56" height="56" viewBox="0 0 56 56" fill="none" xmlns="http://www.w3.org/2000/svg">
<path fill-rule="evenodd" clip-rule="evenodd" d="M35.0687 42.837C43.6403 42.837 46.0893 35.4899 46.0893 31.8164C46.0893 23.0247 39.9667 10.9996 35.0687 10.9996C32.2593 10.9996 29.0472 14.9555 26.8185 19.9882C26.598 20.4861 26.7056 21.0634 27.0608 21.4761C29.6258 24.4564 31.8877 28.381 32.7822 31.9689C33.2759 33.9489 33.2418 37.4036 31.2683 40.1116C30.6729 40.9286 30.8201 42.1678 31.7966 42.4294C32.7723 42.6908 33.8596 42.837 35.0687 42.837Z" fill="black"/>
<path d="M29.9817 31.9689C30.7546 35.0692 30.2338 41.785 22.9999 43.5886C15.766 45.3922 12.1532 39.707 11.3802 36.6068C9.53029 29.1872 12.1671 17.7504 16.3007 16.7198C20.4344 15.6892 28.1317 24.5493 29.9817 31.9689Z" fill="black"/>
</svg>
