<svg width="56" height="56" viewBox="0 0 56 56" fill="none" xmlns="http://www.w3.org/2000/svg">
<path d="M8.40039 28.4317C8.40039 39.018 17.0331 47.6 27.6821 47.6C34.6526 47.6 40.7592 43.9229 44.1463 38.4135C44.4408 37.9344 44.0455 37.3291 43.4836 37.3506C40.0341 37.4821 30.6335 37.1805 25.2989 30.5854C19.9288 23.9462 21.8457 14.4003 22.7608 11.0328C22.9064 10.497 22.4197 9.97757 21.8898 10.1433C14.071 12.5882 8.40039 19.8516 8.40039 28.4317Z" fill="black"/>
<path d="M40.7563 19.887C40.9267 19.3587 41.6741 19.3587 41.8445 19.887L42.2668 21.1964C42.3431 21.433 42.5635 21.5932 42.8121 21.5926L44.188 21.5896C44.743 21.5884 44.974 22.2993 44.5242 22.6245L43.4094 23.4308C43.2079 23.5765 43.1237 23.8356 43.2011 24.0719L43.6291 25.3795C43.8018 25.907 43.1971 26.3463 42.7488 26.0191L41.6374 25.2079C41.4366 25.0614 41.1642 25.0614 40.9634 25.2079L39.852 26.0191C39.4037 26.3463 38.799 25.907 38.9717 25.3795L39.3997 24.0719C39.4771 23.8356 39.3929 23.5765 39.1914 23.4308L38.0765 22.6245C37.6268 22.2993 37.8577 21.5884 38.4128 21.5896L39.7887 21.5926C40.0373 21.5932 40.2577 21.433 40.334 21.1965L40.7563 19.887Z" fill="black"/>
<path d="M32.484 11.091C32.6144 10.6867 33.1864 10.6867 33.3168 11.091L33.5841 11.92C33.6425 12.1011 33.8112 12.2237 34.0015 12.2233L34.8725 12.2214C35.2973 12.2204 35.4741 12.7644 35.1299 13.0134L34.424 13.5238C34.2699 13.6353 34.2055 13.8336 34.2646 14.0144L34.5356 14.8423C34.6678 15.246 34.205 15.5822 33.8619 15.3317L33.1583 14.8182C33.0047 14.7061 32.7961 14.7061 32.6425 14.8182L31.9389 15.3317C31.5958 15.5822 31.133 15.246 31.2652 14.8423L31.5361 14.0144C31.5953 13.8336 31.5309 13.6353 31.3767 13.5238L30.6709 13.0134C30.3267 12.7644 30.5035 12.2204 30.9283 12.2214L31.7993 12.2233C31.9896 12.2237 32.1583 12.1011 32.2166 11.92L32.484 11.091Z" fill="black"/>
</svg>
