<svg width="56" height="56" viewBox="0 0 56 56" fill="none" xmlns="http://www.w3.org/2000/svg">
<rect x="15.9043" y="34.104" width="24.192" height="7.56" rx="1.512" fill="black"/>
<path d="M8.34375 31.08C8.34375 30.2449 9.0207 29.568 9.85575 29.568H11.3678C12.2028 29.568 12.8798 30.2449 12.8798 31.08V40.152C12.8798 40.9871 12.2028 41.664 11.3678 41.664H9.85575C9.0207 41.664 8.34375 40.9871 8.34375 40.152V31.08Z" fill="black"/>
<rect x="15.9043" y="43.176" width="3.024" height="3.024" rx="0.756" fill="black"/>
<rect x="37.0713" y="43.176" width="3.024" height="3.024" rx="0.756" fill="black"/>
<path d="M43.1191 31.08C43.1191 30.2449 43.7961 29.568 44.6311 29.568H46.1431C46.9782 29.568 47.6551 30.2449 47.6551 31.08V40.152C47.6551 40.9871 46.9782 41.664 46.1431 41.664H44.6311C43.7961 41.664 43.1191 40.9871 43.1191 40.152V31.08Z" fill="black"/>
<path fill-rule="evenodd" clip-rule="evenodd" d="M43.8762 26.3053C44.2937 26.3053 44.6322 25.9669 44.6322 25.5493V24.5147V23.5241C44.6322 23.515 44.6248 23.5076 44.6157 23.5076C44.607 23.5076 44.5998 23.5008 44.5992 23.4921C44.0548 15.0687 36.8313 8.4 28.0002 8.4C19.1691 8.4 11.9455 15.0687 11.4011 23.4921C11.4005 23.5008 11.3933 23.5076 11.3846 23.5076C11.3755 23.5076 11.3682 23.515 11.3682 23.5241V24.5147V25.5493C11.3682 25.9669 11.7066 26.3053 12.1242 26.3053H13.2231C14.58 26.3053 15.6801 27.4054 15.6801 28.7623V30.324C15.6801 30.7415 16.0185 31.08 16.4361 31.08H39.5637C39.9813 31.08 40.3197 30.7415 40.3197 30.324V28.7623C40.3197 27.4054 41.4198 26.3053 42.7767 26.3053H43.8762Z" fill="black"/>
</svg>
