<svg width="56" height="56" viewBox="0 0 56 56" fill="none" xmlns="http://www.w3.org/2000/svg">
<path d="M16.6764 18.8138C16.7478 18.4569 17.0612 18.1999 17.4253 18.1999H20.0677C20.5496 18.1999 20.911 18.6408 20.8165 19.1133L15.522 45.5861C15.4506 45.943 15.1372 46.1999 14.7732 46.1999H12.1307C11.6488 46.1999 11.2874 45.7591 11.3819 45.2865L16.6764 18.8138Z" fill="black"/>
<rect x="11.1992" y="9.79994" width="33.6" height="7" rx="1.52727" fill="black"/>
<path d="M20.7399 32.6941C20.8302 32.4004 21.1016 32.1999 21.4089 32.1999L34.5903 32.1999C34.8976 32.1999 35.169 32.4004 35.2593 32.6941L36.1209 35.4941C36.2594 35.9442 35.9228 36.3999 35.4518 36.3999H20.5474C20.0764 36.3999 19.7398 35.9442 19.8783 35.4941L20.7399 32.6941Z" fill="black"/>
<path d="M35.1817 19.1133C35.0872 18.6408 35.4486 18.1999 35.9305 18.1999H38.573C38.937 18.1999 39.2504 18.4569 39.3218 18.8138L44.6163 45.2865C44.7109 45.7591 44.3494 46.1999 43.8675 46.1999H41.2251C40.861 46.1999 40.5476 45.943 40.4762 45.5861L35.1817 19.1133Z" fill="black"/>
</svg>
